<svg width="47" height="46" viewBox="0 0 47 46" fill="none" xmlns="http://www.w3.org/2000/svg">
<g clip-path="url(#clip0_39894_87792)">
<path d="M21.3086 0.960549L1.13754 21.0479C0.0531107 22.1278 0.0531107 23.8721 1.13754 24.952L21.3086 45.0393C22.3931 46.1193 24.1446 46.1193 25.229 45.0393L33.6865 36.617C34.6577 35.6499 34.6577 34.0818 33.6865 33.1146C32.7153 32.1475 31.1407 32.1475 30.1695 33.1146L23.758 39.4995C23.4881 39.7683 23.0784 39.7683 22.8085 39.4995L6.70045 23.4584C6.43054 23.1896 6.43054 22.7816 6.70045 22.5128L22.8085 6.47166C23.0784 6.20287 23.4881 6.20287 23.758 6.47166L30.1695 12.8566C31.1407 13.8237 32.7153 13.8237 33.6865 12.8566C34.6577 11.8894 34.6577 10.3213 33.6865 9.35419L25.23 0.932769C24.1411 -0.123789 22.3889 -0.115236 21.3086 0.960549Z" fill="url(#paint0_linear_39894_87792)"/>
<path d="M21.3086 0.960549L1.13754 21.0479C0.0531107 22.1278 0.0531107 23.8721 1.13754 24.952L21.3086 45.0393C22.3931 46.1193 24.1446 46.1193 25.229 45.0393L33.6865 36.617C34.6577 35.6499 34.6577 34.0818 33.6865 33.1146C32.7153 32.1475 31.1407 32.1475 30.1695 33.1146L23.758 39.4995C23.4881 39.7683 23.0784 39.7683 22.8085 39.4995L6.70045 23.4584C6.43054 23.1896 6.43054 22.7816 6.70045 22.5128L22.8085 6.47166C23.4806 5.8942 24.5772 4.72457 26.1875 4.45101C27.3842 4.24771 28.6926 4.69517 30.1126 5.7934C29.1632 4.84799 27.5357 3.22777 25.23 0.932769C24.1411 -0.123789 22.3889 -0.115236 21.3086 0.960549Z" fill="url(#paint1_linear_39894_87792)"/>
<path d="M35.6388 31.2465C36.61 32.2136 38.1846 32.2136 39.1558 31.2465L45.3944 25.0338C46.4789 23.9538 46.4789 22.2096 45.3946 21.1298L39.1015 14.8851C38.128 13.9191 36.5529 13.9205 35.5812 14.8882C34.61 15.8554 34.61 17.4234 35.5812 18.3906L39.8315 22.6233C40.1014 22.8921 40.1014 23.3 39.8315 23.5688L35.6388 27.7441C34.6676 28.7113 34.6676 30.2793 35.6388 31.2465Z" fill="url(#paint2_linear_39894_87792)"/>
<path d="M23.3695 28.5239C26.3774 28.5239 28.8157 26.0957 28.8157 23.1003C28.8157 20.105 26.3774 17.6768 23.3695 17.6768C20.3617 17.6768 17.9233 20.105 17.9233 23.1003C17.9233 26.0957 20.3617 28.5239 23.3695 28.5239Z" fill="url(#paint3_linear_39894_87792)"/>
</g>
<defs>
<linearGradient id="paint0_linear_39894_87792" x1="21.4953" y1="0.146974" x2="40.6289" y2="11.8706" gradientUnits="userSpaceOnUse">
<stop stop-color="#4285EB"/>
<stop offset="1" stop-color="#2EC7FF"/>
</linearGradient>
<linearGradient id="paint1_linear_39894_87792" x1="24.0664" y1="0.146972" x2="14.6597" y2="48.9258" gradientUnits="userSpaceOnUse">
<stop stop-color="#29CDFF"/>
<stop offset="0.378601" stop-color="#148EFF"/>
<stop offset="1" stop-color="#0A60FF"/>
</linearGradient>
<linearGradient id="paint2_linear_39894_87792" x1="42.7662" y1="11.8507" x2="30.5059" y2="31.0889" gradientUnits="userSpaceOnUse">
<stop stop-color="#FA816E"/>
<stop offset="0.414726" stop-color="#F74A5C"/>
<stop offset="1" stop-color="#F51D2C"/>
</linearGradient>
<linearGradient id="paint3_linear_39894_87792" x1="25.3441" y1="13.8053" x2="21.271" y2="30.1528" gradientUnits="userSpaceOnUse">
<stop stop-color="#FA8E7D"/>
<stop offset="0.512635" stop-color="#F74A5C"/>
<stop offset="1" stop-color="#F51D2C"/>
</linearGradient>
<clipPath id="clip0_39894_87792">
<rect width="46.1538" height="46" fill="white" transform="translate(0.172852)"/>
</clipPath>
</defs>
</svg>
